<svg width="392" height="498" viewBox="0 0 392 498" fill="none" xmlns="http://www.w3.org/2000/svg">
<path d="M371 97L173 252" stroke="black"/>
<circle cx="195.46" cy="127.46" r="126.96" stroke="#333333" stroke-dasharray="2 2"/>
<line x1="195.5" y1="282.978" x2="195.5" y2="3.05394e-05" stroke="#333333"/>
<circle cx="196" cy="239.288" r="195.5" stroke="#333333" stroke-dasharray="5 5"/>
<circle cx="195.611" cy="55.3129" r="5.11145" fill="#FAFAFA" stroke="#333333"/>
<circle cx="195.975" cy="239.288" r="183.475" stroke="#333333" stroke-dasharray="5 5"/>
<circle cx="371.219" cy="95.2188" r="8.71881" fill="#333333" stroke="#333333"/>
<circle cx="196.219" cy="113.431" r="8.71881" fill="#FAFAFA" stroke="#333333"/>
<circle cx="195.456" cy="239.288" r="124.956" stroke="#333333"/>
<line x1="195.5" y1="497.014" x2="195.5" y2="122.65" stroke="#333333"/>
<path d="M390.942 245.058C391.408 246.689 391.722 248.337 391.88 249.999L391.383 250.046C391.461 250.866 391.5 251.689 391.5 252.515C391.5 253.342 391.461 254.165 391.383 254.985L391.88 255.032C391.722 256.694 391.408 258.342 390.942 259.973L390.461 259.836C390.018 261.389 389.435 262.929 388.716 264.453L389.169 264.667C388.472 266.145 387.65 267.607 386.708 269.052L386.289 268.779C385.409 270.13 384.421 271.466 383.328 272.788L383.713 273.107C382.673 274.365 381.54 275.609 380.317 276.837L379.963 276.484C378.819 277.631 377.596 278.766 376.295 279.887L376.621 280.266C375.383 281.333 374.075 282.386 372.7 283.425L372.399 283.027C371.102 284.007 369.744 284.976 368.327 285.932L368.607 286.346C367.249 287.262 365.838 288.166 364.375 289.057L364.115 288.63C362.72 289.48 361.278 290.318 359.788 291.145L360.031 291.582C358.593 292.381 357.112 293.168 355.59 293.944L355.363 293.498C353.898 294.245 352.393 294.981 350.851 295.706L351.064 296.158C349.565 296.863 348.031 297.557 346.462 298.24L346.262 297.782C344.75 298.44 343.206 299.089 341.63 299.727L341.818 300.19C340.289 300.81 338.731 301.419 337.144 302.018L336.968 301.551C335.421 302.135 333.846 302.71 332.245 303.275L332.411 303.746C330.84 304.301 329.243 304.846 327.622 305.381L327.465 304.906C325.9 305.423 324.311 305.93 322.7 306.429L322.848 306.907C321.262 307.397 319.654 307.879 318.026 308.351L317.886 307.871C316.285 308.335 314.663 308.79 313.021 309.237L313.152 309.719C311.556 310.153 309.94 310.578 308.307 310.995L308.183 310.51C306.572 310.921 304.944 311.323 303.298 311.716L303.414 312.203C301.792 312.59 300.152 312.969 298.497 313.34L298.388 312.852C296.77 313.214 295.137 313.567 293.489 313.913L293.591 314.402C291.955 314.745 290.304 315.079 288.638 315.405L288.542 314.914C286.913 315.233 285.27 315.543 283.614 315.845L283.704 316.337C282.062 316.637 280.408 316.928 278.741 317.211L278.657 316.718C277.013 316.997 275.357 317.268 273.689 317.531L273.766 318.025C272.121 318.284 270.465 318.535 268.797 318.778L268.724 318.283C267.069 318.524 265.402 318.758 263.725 318.983L263.791 319.478C262.143 319.699 260.484 319.913 258.815 320.118L258.754 319.622C257.093 319.826 255.422 320.023 253.741 320.212L253.796 320.708C252.142 320.894 250.478 321.072 248.805 321.242L248.755 320.744C247.091 320.913 245.418 321.075 243.736 321.228L243.782 321.726C242.121 321.877 240.451 322.021 238.774 322.157L238.734 321.659C237.067 321.794 235.393 321.921 233.711 322.04L233.746 322.539C232.08 322.657 230.407 322.768 228.726 322.871L228.696 322.372C227.027 322.474 225.352 322.568 223.67 322.655L223.695 323.154C222.026 323.24 220.35 323.318 218.667 323.389L218.646 322.889C216.976 322.959 215.3 323.022 213.617 323.076L213.633 323.576C211.962 323.63 210.284 323.677 208.6 323.716L208.588 323.216C206.917 323.255 205.24 323.286 203.558 323.309L203.565 323.809C201.892 323.832 200.213 323.847 198.529 323.855L198.527 323.355C197.686 323.359 196.844 323.361 196 323.361C195.156 323.361 194.314 323.359 193.473 323.355L193.471 323.855C191.787 323.847 190.108 323.832 188.435 323.809L188.442 323.309C186.76 323.286 185.083 323.255 183.411 323.216L183.4 323.716C181.716 323.677 180.038 323.63 178.367 323.576L178.383 323.076C176.7 323.022 175.024 322.959 173.354 322.889L173.333 323.389C171.65 323.318 169.974 323.24 168.305 323.154L168.33 322.655C166.648 322.568 164.973 322.474 163.304 322.372L163.274 322.871C161.593 322.768 159.92 322.657 158.254 322.539L158.289 322.04C156.607 321.921 154.933 321.794 153.266 321.659L153.226 322.157C151.549 322.021 149.879 321.877 148.218 321.726L148.264 321.228C146.582 321.075 144.909 320.913 143.245 320.744L143.195 321.242C141.522 321.072 139.858 320.894 138.204 320.708L138.259 320.212C136.578 320.023 134.907 319.826 133.246 319.622L133.185 320.118C131.516 319.913 129.857 319.699 128.209 319.478L128.275 318.983C126.598 318.758 124.931 318.524 123.276 318.283L123.203 318.778C121.535 318.535 119.879 318.284 118.234 318.025L118.311 317.531C116.643 317.268 114.987 316.997 113.343 316.718L113.259 317.211C111.592 316.928 109.938 316.637 108.296 316.337L108.386 315.845C106.73 315.543 105.087 315.233 103.458 314.914L103.362 315.405C101.696 315.079 100.045 314.745 98.4088 314.402L98.5113 313.913C96.8631 313.568 95.23 313.214 93.6125 312.852L93.5033 313.34C91.8477 312.969 90.2084 312.59 88.5858 312.203L88.702 311.716C87.0561 311.323 85.4276 310.921 83.8168 310.51L83.6933 310.995C82.0596 310.578 80.4442 310.153 78.8476 309.719L78.9787 309.237C77.3369 308.79 75.7151 308.335 74.1137 307.871L73.9745 308.351C72.3458 307.879 70.7383 307.397 69.1524 306.907L69.3002 306.429C67.6889 305.931 66.1002 305.423 64.5347 304.906L64.378 305.381C62.7566 304.846 61.1599 304.301 59.5886 303.746L59.755 303.275C58.154 302.71 56.5795 302.135 55.0324 301.551L54.8557 302.018C53.2691 301.419 51.711 300.81 50.1822 300.19L50.3699 299.727C48.7942 299.089 47.2499 298.44 45.7378 297.782L45.5382 298.24C43.9693 297.557 42.4349 296.863 40.936 296.158L41.1487 295.706C39.6065 294.981 38.1023 294.245 36.637 293.498L36.41 293.944C34.8876 293.168 33.4069 292.381 31.969 291.582L32.2117 291.145C30.7224 290.318 29.2797 289.48 27.8847 288.63L27.6245 289.057C26.1617 288.166 24.7508 287.262 23.3934 286.346L23.673 285.932C22.2561 284.976 20.8983 284.007 19.6012 283.027L19.2997 283.425C17.9249 282.386 16.6173 281.333 15.379 280.266L15.7053 279.887C14.4041 278.766 13.1807 277.631 12.0375 276.484L11.6832 276.837C10.4601 275.609 9.32696 274.365 8.28669 273.107L8.67205 272.788C7.57921 271.466 6.59115 270.13 5.71084 268.779L5.292 269.052C4.34962 267.607 3.52803 266.145 2.83135 264.667L3.28362 264.453C2.56478 262.929 1.98185 261.389 1.53871 259.836L1.0579 259.973C0.592425 258.342 0.277951 256.694 0.119659 255.032L0.617407 254.985C0.539347 254.165 0.5 253.342 0.5 252.515C0.5 251.689 0.539348 250.866 0.61741 250.046L0.119662 249.999C0.277957 248.337 0.592434 246.689 1.05792 245.058L1.53872 245.195C1.98186 243.642 2.5648 242.102 3.28363 240.577L2.83136 240.364C3.52805 238.886 4.34963 237.424 5.29201 235.978L5.71085 236.251C6.59117 234.901 7.57923 233.564 8.67206 232.243L8.28671 231.924C9.32697 230.666 10.4601 229.422 11.6832 228.194L12.0375 228.547C13.1807 227.399 14.4041 226.264 15.7053 225.144L15.379 224.765C16.6174 223.698 17.9249 222.645 19.2997 221.605L19.6012 222.004C20.8983 221.023 22.2561 220.055 23.673 219.099L23.3934 218.684C24.7508 217.769 26.1617 216.865 27.6245 215.974L27.8847 216.401C29.2797 215.551 30.7224 214.712 32.2117 213.885L31.969 213.448C33.4069 212.65 34.8876 211.863 36.41 211.087L36.637 211.533C38.1023 210.786 39.6065 210.05 41.1487 209.325L40.936 208.873C42.4349 208.168 43.9693 207.474 45.5382 206.79L45.7378 207.249C47.2499 206.59 48.7942 205.942 50.3699 205.304L50.1822 204.84C51.711 204.221 53.2691 203.612 54.8557 203.012L55.0324 203.48C56.5795 202.896 58.1539 202.321 59.755 201.756L59.5886 201.285C61.1598 200.73 62.7565 200.185 64.378 199.65L64.5347 200.125C66.1002 199.608 67.6889 199.1 69.3001 198.602L69.1524 198.124C70.7382 197.634 72.3458 197.152 73.9745 196.68L74.1137 197.16C75.715 196.696 77.3369 196.24 78.9787 195.794L78.8475 195.312C80.4442 194.878 82.0596 194.452 83.6933 194.036L83.8168 194.52C85.4275 194.11 87.0561 193.708 88.702 193.314L88.5858 192.828C90.2084 192.44 91.8477 192.061 93.5033 191.691L93.6124 192.179C95.2299 191.817 96.863 191.463 98.5113 191.118L98.4088 190.629C100.045 190.286 101.696 189.952 103.362 189.626L103.458 190.117C105.087 189.798 106.73 189.488 108.386 189.185L108.296 188.694C109.938 188.394 111.592 188.103 113.259 187.82L113.343 188.313C114.987 188.034 116.643 187.763 118.311 187.5L118.234 187.006C119.879 186.747 121.535 186.496 123.203 186.253L123.275 186.748C124.931 186.506 126.598 186.273 128.275 186.048L128.209 185.552C129.857 185.331 131.516 185.118 133.185 184.913L133.246 185.409C134.907 185.204 136.578 185.008 138.259 184.819L138.204 184.322C139.858 184.137 141.522 183.959 143.195 183.789L143.245 184.286C144.909 184.117 146.582 183.956 148.264 183.803L148.218 183.305C149.879 183.153 151.549 183.01 153.226 182.874L153.266 183.372C154.933 183.237 156.607 183.11 158.289 182.99L158.254 182.492C159.92 182.373 161.593 182.263 163.274 182.16L163.304 182.659C164.973 182.557 166.648 182.462 168.33 182.376L168.305 181.876C169.974 181.791 171.65 181.712 173.333 181.642L173.354 182.141C175.024 182.071 176.7 182.009 178.383 181.954L178.367 181.455C180.038 181.4 181.716 181.354 183.4 181.315L183.412 181.815C185.083 181.776 186.76 181.745 188.442 181.722L188.435 181.222C190.108 181.199 191.787 181.183 193.471 181.176L193.473 181.676C194.314 181.672 195.156 181.67 196 181.67C196.844 181.67 197.686 181.672 198.527 181.676L198.529 181.176C200.213 181.183 201.892 181.199 203.565 181.222L203.558 181.722C205.24 181.745 206.917 181.776 208.589 181.815L208.6 181.315C210.284 181.354 211.962 181.4 213.633 181.455L213.617 181.954C215.3 182.009 216.976 182.071 218.646 182.141L218.667 181.642C220.35 181.712 222.026 181.791 223.695 181.876L223.67 182.376C225.352 182.462 227.027 182.557 228.696 182.659L228.726 182.16C230.407 182.263 232.08 182.373 233.746 182.492L233.711 182.99C235.393 183.11 237.067 183.237 238.734 183.372L238.774 182.874C240.451 183.01 242.121 183.153 243.782 183.305L243.736 183.803C245.418 183.956 247.091 184.117 248.755 184.286L248.805 183.789C250.478 183.959 252.142 184.137 253.796 184.322L253.741 184.819C255.422 185.008 257.093 185.204 258.754 185.409L258.815 184.913C260.484 185.118 262.143 185.331 263.791 185.552L263.725 186.048C265.402 186.273 267.069 186.506 268.724 186.748L268.797 186.253C270.465 186.496 272.121 186.747 273.766 187.006L273.689 187.5C275.357 187.763 277.013 188.034 278.657 188.313L278.741 187.82C280.408 188.103 282.062 188.394 283.704 188.693L283.614 189.185C285.27 189.488 286.913 189.798 288.542 190.117L288.638 189.626C290.304 189.952 291.955 190.286 293.591 190.629L293.489 191.118C295.137 191.463 296.77 191.817 298.388 192.179L298.497 191.691C300.152 192.061 301.792 192.44 303.414 192.828L303.298 193.314C304.944 193.708 306.572 194.11 308.183 194.52L308.307 194.036C309.94 194.452 311.556 194.878 313.152 195.312L313.021 195.794C314.663 196.24 316.285 196.696 317.886 197.16L318.026 196.68C319.654 197.152 321.262 197.634 322.848 198.124L322.7 198.602C324.311 199.1 325.9 199.608 327.465 200.125L327.622 199.65C329.243 200.185 330.84 200.73 332.411 201.285L332.245 201.756C333.846 202.321 335.421 202.896 336.968 203.48L337.144 203.012C338.731 203.612 340.289 204.221 341.818 204.84L341.63 205.304C343.206 205.942 344.75 206.59 346.262 207.249L346.462 206.79C348.031 207.474 349.565 208.168 351.064 208.873L350.851 209.325C352.393 210.05 353.898 210.786 355.363 211.533L355.59 211.087C357.112 211.863 358.593 212.65 360.031 213.448L359.788 213.885C361.278 214.712 362.72 215.551 364.115 216.401L364.375 215.974C365.838 216.865 367.249 217.769 368.607 218.684L368.327 219.099C369.744 220.055 371.102 221.023 372.399 222.004L372.7 221.605C374.075 222.645 375.383 223.698 376.621 224.765L376.295 225.144C377.596 226.264 378.819 227.399 379.963 228.547L380.317 228.194C381.54 229.422 382.673 230.666 383.713 231.924L383.328 232.243C384.421 233.564 385.409 234.901 386.289 236.251L386.708 235.978C387.65 237.424 388.472 238.886 389.169 240.364L388.716 240.577C389.435 242.102 390.018 243.642 390.461 245.195L390.942 245.058Z" stroke="#333333" stroke-dasharray="5 5"/>
</svg>
