<svg width="392" height="143" viewBox="0 0 392 143" fill="none" xmlns="http://www.w3.org/2000/svg">
<path d="M1.05789 78.8032C0.592401 77.1719 0.277948 75.5243 0.119653 73.8622L0.617395 73.8148C0.539331 72.9952 0.499994 72.1721 0.499994 71.3456C0.499994 70.5191 0.539331 69.696 0.617395 68.8763L0.119653 68.8289C0.277947 67.1669 0.592431 65.5192 1.05792 63.8879L1.53872 64.0251C1.98187 62.4721 2.56478 60.9324 3.28362 59.4075L2.83135 59.1943C3.52804 57.7163 4.34963 56.2539 5.29202 54.8085L5.71084 55.0816C6.59115 53.7314 7.57922 52.3947 8.67205 51.0728L8.2867 50.7542C9.32696 49.496 10.4601 48.2523 11.6832 47.0244L12.0375 47.3772C13.1807 46.2295 14.4041 45.0947 15.7053 43.9739L15.379 43.595C16.6173 42.5284 17.9249 41.4749 19.2997 40.4355L19.6012 40.8343C20.8983 39.8536 22.2561 38.885 23.673 37.9292L23.3933 37.5147C24.7508 36.5989 26.1617 35.6952 27.6245 34.804L27.8846 35.231C29.2797 34.3812 30.7224 33.5426 32.2117 32.7157L31.969 32.2786C33.4069 31.4802 34.8876 30.693 36.41 29.9173L36.637 30.3628C38.1023 29.6162 39.6065 28.8803 41.1487 28.1553L40.9359 27.7028C42.4349 26.9982 43.9693 26.304 45.5382 25.6207L45.7378 26.0791C47.2498 25.4206 48.7941 24.7721 50.3699 24.1339L50.1822 23.6704C51.7109 23.0513 53.269 22.4419 54.8557 21.8427L55.0323 22.3104C56.5795 21.7261 58.1539 21.1513 59.755 20.5863L59.5886 20.1148C61.1598 19.5603 62.7565 19.0153 64.3779 18.4801L64.5347 18.9549C66.1002 18.4381 67.6889 17.9304 69.3001 17.4321L69.1524 16.9544C70.7382 16.4639 72.3458 15.9824 73.9744 15.5101L74.1137 15.9903C75.715 15.526 77.3368 15.0706 78.9787 14.6244L78.8475 14.1419C80.4441 13.7079 82.0596 13.2826 83.6932 12.8661L83.8168 13.3506C85.4275 12.94 87.0561 12.5379 88.702 12.1447L88.5858 11.6584C90.2083 11.2707 91.8476 10.8915 93.5033 10.5211L93.6124 11.009C95.2299 10.6471 96.863 10.2934 98.5112 9.9483L98.4088 9.45892C100.045 9.11628 101.696 8.78199 103.362 8.45622L103.458 8.94692C105.087 8.62829 106.73 8.31782 108.386 8.01563L108.296 7.52375C109.938 7.22434 111.592 6.93308 113.259 6.65009L113.343 7.14304C114.986 6.86398 116.643 6.59298 118.311 6.33019L118.234 5.83628C119.879 5.57717 121.535 5.32604 123.203 5.083L123.276 5.57777C124.931 5.33657 126.598 5.10336 128.275 4.87824L128.209 4.3827C129.857 4.16151 131.516 3.94816 133.185 3.74276L133.246 4.23901C134.907 4.03454 136.578 3.83797 138.259 3.64941L138.204 3.15253C139.858 2.96696 141.522 2.78915 143.195 2.61921L143.245 3.11664C144.909 2.94759 146.582 2.78634 148.264 2.633L148.218 2.13508C149.879 1.98362 151.549 1.83986 153.226 1.70394L153.266 2.20231C154.933 2.0673 156.607 1.94002 158.289 1.82058L158.254 1.32183C159.92 1.20353 161.593 1.0929 163.274 0.990071L163.304 1.48913C164.973 1.38706 166.648 1.29267 168.33 1.20606L168.305 0.706715C169.974 0.620762 171.65 0.542469 173.333 0.471928L173.354 0.9715C175.024 0.901493 176.7 0.839145 178.383 0.784534L178.367 0.284793C180.038 0.230533 181.716 0.183902 183.4 0.145023L183.412 0.644885C185.083 0.606296 186.76 0.57532 188.442 0.552081L188.435 0.0521266C190.108 0.0290093 191.787 0.0135368 193.471 0.00578518L193.473 0.505785C194.314 0.501909 195.156 0.499971 196 0.499971C196.844 0.499971 197.686 0.501909 198.527 0.505785L198.529 0.00578474C200.213 0.0135361 201.892 0.0290083 203.565 0.0521252L203.558 0.552079C205.24 0.575318 206.917 0.606294 208.589 0.644883L208.6 0.14502C210.284 0.1839 211.962 0.23053 213.633 0.28479L213.617 0.784531C215.3 0.839142 216.976 0.901489 218.646 0.971496L218.667 0.471924C220.35 0.542465 222.026 0.620758 223.695 0.70671L223.67 1.20605C225.352 1.29266 227.027 1.38705 228.696 1.48913L228.726 0.990066C230.407 1.09289 232.08 1.20352 233.746 1.32182L233.711 1.82057C235.393 1.94002 237.067 2.06729 238.734 2.20231L238.774 1.70395C240.451 1.83987 242.121 1.98361 243.782 2.13507L243.736 2.63299C245.418 2.78633 247.091 2.94758 248.755 3.11664L248.805 2.6192C250.478 2.78914 252.142 2.96695 253.796 3.15252L253.741 3.6494C255.422 3.83796 257.093 4.03453 258.754 4.23899L258.815 3.74275C260.484 3.94815 262.143 4.1615 263.791 4.38269L263.725 4.87825C265.402 5.10334 267.069 5.33656 268.724 5.57775L268.797 5.08299C270.465 5.32603 272.121 5.57716 273.766 5.83627L273.689 6.33018C275.357 6.59297 277.013 6.86396 278.657 7.14302L278.741 6.65006C280.408 6.93304 282.062 7.22431 283.704 7.52372L283.614 8.0156C285.27 8.31779 286.913 8.62827 288.542 8.94689L288.638 8.4562C290.304 8.78198 291.955 9.11625 293.591 9.45889L293.489 9.94827C295.137 10.2934 296.77 10.647 298.388 11.0089L298.497 10.521C300.152 10.8915 301.792 11.2706 303.414 11.6583L303.298 12.1446C304.944 12.5379 306.572 12.9399 308.183 13.3506L308.307 12.8661C309.94 13.2826 311.556 13.7079 313.152 14.1418L313.021 14.6243C314.663 15.0706 316.285 15.526 317.886 15.9903L318.025 15.5101C319.654 15.9823 321.262 16.4638 322.848 16.9543L322.7 17.432C324.311 17.9304 325.9 18.4381 327.465 18.9549L327.622 18.4801C329.243 19.0153 330.84 19.5603 332.411 20.1147L332.245 20.5862C333.846 21.1512 335.42 21.726 336.968 22.3104L337.144 21.8426C338.731 22.4419 340.289 23.0513 341.818 23.6704L341.63 24.1339C343.206 24.772 344.75 25.4205 346.262 26.0791L346.462 25.6207C348.031 26.304 349.565 26.9982 351.064 27.7028L350.851 28.1553C352.393 28.8803 353.898 29.6162 355.363 30.3628L355.59 29.9173C357.112 30.693 358.593 31.4802 360.031 32.2785L359.788 32.7157C361.278 33.5425 362.72 34.3811 364.115 35.231L364.375 34.804C365.838 35.6952 367.249 36.5989 368.607 37.5147L368.327 37.9292C369.744 38.885 371.102 39.8536 372.399 40.8343L372.7 40.4355C374.075 41.4749 375.383 42.5283 376.621 43.595L376.295 43.9738C377.596 45.0947 378.819 46.2294 379.963 47.3772L380.317 47.0244C381.54 48.2523 382.673 49.4959 383.713 50.7542L383.328 51.0728C384.421 52.3947 385.409 53.7314 386.289 55.0816L386.708 54.8085C387.65 56.2539 388.472 57.7163 389.169 59.1942L388.716 59.4074C389.435 60.9324 390.018 62.4721 390.461 64.0251L390.942 63.8879C391.408 65.5192 391.722 67.1668 391.88 68.8289L391.383 68.8763C391.461 69.6959 391.5 70.5191 391.5 71.3456C391.5 72.172 391.461 72.9952 391.383 73.8148L391.88 73.8622C391.722 75.5243 391.408 77.1719 390.942 78.8032L390.461 78.666C390.018 80.219 389.435 81.7588 388.716 83.2837L389.169 83.4969C388.472 84.9748 387.65 86.4373 386.708 87.8826L386.289 87.6096C385.409 88.9598 384.421 90.2965 383.328 91.6183L383.713 91.9369C382.673 93.1952 381.54 94.4388 380.317 95.6668L379.963 95.3139C378.819 96.4617 377.596 97.5965 376.295 98.7173L376.621 99.0961C375.383 100.163 374.075 101.216 372.7 102.256L372.399 101.857C371.102 102.838 369.744 103.806 368.327 104.762L368.607 105.176C367.249 106.092 365.838 106.996 364.375 107.887L364.115 107.46C362.72 108.31 361.278 109.149 359.788 109.975L360.031 110.413C358.593 111.211 357.112 111.998 355.59 112.774L355.363 112.328C353.898 113.075 352.393 113.811 350.851 114.536L351.064 114.988C349.565 115.693 348.031 116.387 346.462 117.07L346.262 116.612C344.75 117.271 343.206 117.919 341.63 118.557L341.818 119.021C340.289 119.64 338.731 120.249 337.144 120.848L336.968 120.381C335.421 120.965 333.846 121.54 332.245 122.105L332.411 122.576C330.84 123.131 329.243 123.676 327.622 124.211L327.465 123.736C325.9 124.253 324.311 124.761 322.7 125.259L322.848 125.737C321.262 126.227 319.654 126.709 318.026 127.181L317.886 126.701C316.285 127.165 314.663 127.621 313.021 128.067L313.152 128.549C311.556 128.983 309.94 129.409 308.307 129.825L308.183 129.341C306.572 129.751 304.944 130.153 303.298 130.546L303.414 131.033C301.792 131.42 300.152 131.8 298.497 132.17L298.388 131.682C296.77 132.044 295.137 132.398 293.489 132.743L293.591 133.232C291.955 133.575 290.304 133.909 288.638 134.235L288.542 133.744C286.913 134.063 285.27 134.373 283.614 134.676L283.704 135.167C282.062 135.467 280.408 135.758 278.741 136.041L278.657 135.548C277.013 135.827 275.357 136.098 273.689 136.361L273.766 136.855C272.121 137.114 270.465 137.365 268.797 137.608L268.725 137.113C267.069 137.355 265.402 137.588 263.725 137.813L263.791 138.308C262.143 138.53 260.484 138.743 258.815 138.948L258.754 138.452C257.093 138.657 255.422 138.853 253.741 139.042L253.796 139.539C252.142 139.724 250.478 139.902 248.805 140.072L248.755 139.575C247.091 139.744 245.418 139.905 243.736 140.058L243.782 140.556C242.121 140.708 240.451 140.851 238.774 140.987L238.734 140.489C237.067 140.624 235.393 140.751 233.711 140.871L233.746 141.369C232.08 141.488 230.407 141.598 228.726 141.701L228.696 141.202C227.027 141.304 225.352 141.398 223.67 141.485L223.695 141.984C222.026 142.07 220.35 142.149 218.667 142.219L218.646 141.72C216.976 141.79 215.3 141.852 213.617 141.907L213.633 142.406C211.962 142.461 210.284 142.507 208.6 142.546L208.588 142.046C206.917 142.085 205.24 142.116 203.558 142.139L203.565 142.639C201.892 142.662 200.213 142.678 198.529 142.685L198.527 142.185C197.686 142.189 196.844 142.191 196 142.191C195.156 142.191 194.314 142.189 193.473 142.185L193.471 142.685C191.787 142.678 190.108 142.662 188.435 142.639L188.442 142.139C186.76 142.116 185.083 142.085 183.411 142.046L183.4 142.546C181.716 142.507 180.038 142.461 178.367 142.406L178.383 141.907C176.7 141.852 175.024 141.79 173.354 141.72L173.333 142.219C171.65 142.149 169.974 142.07 168.305 141.984L168.33 141.485C166.648 141.398 164.973 141.304 163.304 141.202L163.274 141.701C161.593 141.598 159.92 141.488 158.254 141.369L158.289 140.871C156.607 140.751 154.933 140.624 153.266 140.489L153.226 140.987C151.549 140.851 149.879 140.708 148.218 140.556L148.264 140.058C146.582 139.905 144.909 139.744 143.245 139.575L143.195 140.072C141.522 139.902 139.858 139.724 138.204 139.539L138.259 139.042C136.578 138.853 134.907 138.657 133.246 138.452L133.185 138.948C131.516 138.743 129.857 138.53 128.209 138.308L128.275 137.813C126.598 137.588 124.931 137.355 123.276 137.113L123.203 137.608C121.535 137.365 119.879 137.114 118.234 136.855L118.311 136.361C116.643 136.098 114.987 135.827 113.343 135.548L113.259 136.041C111.592 135.758 109.938 135.467 108.296 135.167L108.386 134.676C106.73 134.373 105.087 134.063 103.458 133.744L103.362 134.235C101.696 133.909 100.045 133.575 98.4088 133.232L98.5113 132.743C96.8631 132.398 95.23 132.044 93.6125 131.682L93.5033 132.17C91.8477 131.8 90.2084 131.421 88.5858 131.033L88.702 130.547C87.0561 130.153 85.4276 129.751 83.8168 129.341L83.6933 129.825C82.0596 129.409 80.4442 128.983 78.8476 128.549L78.9787 128.067C77.3369 127.621 75.7151 127.165 74.1137 126.701L73.9745 127.181C72.3458 126.709 70.7382 126.227 69.1524 125.737L69.3002 125.259C67.6889 124.761 66.1002 124.253 64.5347 123.736L64.378 124.211C62.7566 123.676 61.1599 123.131 59.5886 122.576L59.755 122.105C58.154 121.54 56.5795 120.965 55.0324 120.381L54.8557 120.849C53.2691 120.249 51.711 119.64 50.1822 119.021L50.3699 118.557C48.7942 117.919 47.2498 117.271 45.7379 116.612L45.5382 117.07C43.9693 116.387 42.4349 115.693 40.9359 114.988L41.1486 114.536C39.6065 113.811 38.1023 113.075 36.637 112.328L36.41 112.774C34.8876 111.998 33.4069 111.211 31.969 110.413L32.2117 109.975C30.7224 109.149 29.2797 108.31 27.8846 107.46L27.6245 107.887C26.1617 106.996 24.7508 106.092 23.3933 105.176L23.673 104.762C22.2561 103.806 20.8983 102.838 19.6012 101.857L19.2997 102.256C17.9249 101.216 16.6173 100.163 15.379 99.0962L15.7053 98.7173C14.4041 97.5965 13.1807 96.4617 12.0374 95.3139L11.6832 95.6668C10.4601 94.4388 9.32693 93.1952 8.28668 91.9369L8.67205 91.6183C7.57922 90.2965 6.59115 88.9598 5.71084 87.6096L5.29199 87.8827C4.3496 86.4373 3.52804 84.9749 2.83135 83.4969L3.28363 83.2837C2.56478 81.7588 1.98184 80.219 1.53872 78.666L1.05789 78.8032Z" stroke="#333333" stroke-dasharray="5 5"/>
</svg>
