<svg width="1053" height="631" viewBox="0 0 1053 631" fill="none" xmlns="http://www.w3.org/2000/svg">
<line y1="0.5" x2="525.633" y2="0.5" stroke="#DDDDDD" stroke-opacity="0.5" stroke-dasharray="4 4"/>
<line x1="525.632" y1="0.5" x2="1051.26" y2="0.5" stroke="#DDDDDD" stroke-opacity="0.5" stroke-dasharray="4 4"/>
<line x1="0.5" y1="1" x2="0.499987" y2="316" stroke="#DDDDDD" stroke-opacity="0.5"/>
<line x1="0.5" y1="316" x2="0.499987" y2="631" stroke="#DDDDDD" stroke-opacity="0.5"/>
<line x1="280.869" y1="1" x2="280.869" y2="316" stroke="#DDDDDD" stroke-opacity="0.5" stroke-dasharray="4 4"/>
<line x1="280.869" y1="316" x2="280.869" y2="631" stroke="#DDDDDD" stroke-opacity="0.5" stroke-dasharray="4 4"/>
<line x1="806.501" y1="1" x2="806.501" y2="316" stroke="#DDDDDD" stroke-opacity="0.5" stroke-dasharray="4 4"/>
<line x1="806.501" y1="316" x2="806.501" y2="631" stroke="#DDDDDD" stroke-opacity="0.5" stroke-dasharray="4 4"/>
<line x1="140.922" y1="1" x2="140.922" y2="316" stroke="#DDDDDD" stroke-opacity="0.5" stroke-dasharray="4 4"/>
<line x1="140.922" y1="316" x2="140.922" y2="631" stroke="#DDDDDD" stroke-opacity="0.5" stroke-dasharray="4 4"/>
<line x1="666.554" y1="1" x2="666.554" y2="316" stroke="#DDDDDD" stroke-opacity="0.5" stroke-dasharray="4 4"/>
<line x1="666.554" y1="316" x2="666.554" y2="631" stroke="#DDDDDD" stroke-opacity="0.5" stroke-dasharray="4 4"/>
<line x1="421.291" y1="1" x2="421.291" y2="316" stroke="#DDDDDD" stroke-opacity="0.5"/>
<line x1="421.291" y1="316" x2="421.291" y2="631" stroke="#DDDDDD" stroke-opacity="0.5"/>
<line x1="946.923" y1="1" x2="946.923" y2="316" stroke="#DDDDDD" stroke-opacity="0.5"/>
<line x1="946.923" y1="316" x2="946.923" y2="631" stroke="#DDDDDD" stroke-opacity="0.5"/>
<line x1="18.0527" y1="1" x2="18.0527" y2="316" stroke="#DDDDDD" stroke-opacity="0.5" stroke-dasharray="4 4"/>
<line x1="18.0527" y1="316" x2="18.0527" y2="631" stroke="#DDDDDD" stroke-opacity="0.5" stroke-dasharray="4 4"/>
<line x1="543.686" y1="1" x2="543.686" y2="316" stroke="#DDDDDD" stroke-opacity="0.5" stroke-dasharray="4 4"/>
<line x1="543.686" y1="316" x2="543.686" y2="631" stroke="#DDDDDD" stroke-opacity="0.5" stroke-dasharray="4 4"/>
<line x1="298.422" y1="1" x2="298.422" y2="316" stroke="#DDDDDD" stroke-opacity="0.5" stroke-dasharray="4 4"/>
<line x1="298.422" y1="316" x2="298.422" y2="631" stroke="#DDDDDD" stroke-opacity="0.5" stroke-dasharray="4 4"/>
<line x1="824.054" y1="1" x2="824.054" y2="316" stroke="#DDDDDD" stroke-opacity="0.5" stroke-dasharray="4 4"/>
<line x1="824.054" y1="316" x2="824.054" y2="631" stroke="#DDDDDD" stroke-opacity="0.5" stroke-dasharray="4 4"/>
<line x1="158" y1="1" x2="158" y2="316" stroke="#DDDDDD" stroke-opacity="0.5"/>
<line x1="158" y1="316" x2="158" y2="631" stroke="#DDDDDD" stroke-opacity="0.5"/>
<line x1="683.632" y1="1" x2="683.632" y2="316" stroke="#DDDDDD" stroke-opacity="0.5"/>
<line x1="683.632" y1="316" x2="683.632" y2="631" stroke="#DDDDDD" stroke-opacity="0.5"/>
<line x1="438.843" y1="1" x2="438.843" y2="316" stroke="#DDDDDD" stroke-opacity="0.5" stroke-dasharray="4 4"/>
<line x1="438.843" y1="316" x2="438.843" y2="631" stroke="#DDDDDD" stroke-opacity="0.5" stroke-dasharray="4 4"/>
<line x1="964.476" y1="1" x2="964.476" y2="316" stroke="#DDDDDD" stroke-opacity="0.5" stroke-dasharray="4 4"/>
<line x1="964.476" y1="316" x2="964.476" y2="631" stroke="#DDDDDD" stroke-opacity="0.5" stroke-dasharray="4 4"/>
<line x1="35.6055" y1="1" x2="35.6055" y2="316" stroke="#DDDDDD" stroke-opacity="0.5" stroke-dasharray="4 4"/>
<line x1="35.6055" y1="316" x2="35.6055" y2="631" stroke="#DDDDDD" stroke-opacity="0.5" stroke-dasharray="4 4"/>
<line x1="561.238" y1="1" x2="561.238" y2="316" stroke="#DDDDDD" stroke-opacity="0.5" stroke-dasharray="4 4"/>
<line x1="561.238" y1="316" x2="561.238" y2="631" stroke="#DDDDDD" stroke-opacity="0.5" stroke-dasharray="4 4"/>
<line x1="315.975" y1="1" x2="315.975" y2="316" stroke="#DDDDDD" stroke-opacity="0.5"/>
<line x1="315.975" y1="316" x2="315.975" y2="631" stroke="#DDDDDD" stroke-opacity="0.5"/>
<line x1="841.607" y1="1" x2="841.607" y2="316" stroke="#DDDDDD" stroke-opacity="0.5"/>
<line x1="841.607" y1="316" x2="841.607" y2="631" stroke="#DDDDDD" stroke-opacity="0.5"/>
<line x1="175.553" y1="1" x2="175.553" y2="316" stroke="#DDDDDD" stroke-opacity="0.5" stroke-dasharray="4 4"/>
<line x1="175.553" y1="316" x2="175.553" y2="631" stroke="#DDDDDD" stroke-opacity="0.5" stroke-dasharray="4 4"/>
<line x1="701.186" y1="1" x2="701.186" y2="316" stroke="#DDDDDD" stroke-opacity="0.5" stroke-dasharray="4 4"/>
<line x1="701.186" y1="316" x2="701.186" y2="631" stroke="#DDDDDD" stroke-opacity="0.5" stroke-dasharray="4 4"/>
<line x1="455.922" y1="1" x2="455.922" y2="316" stroke="#DDDDDD" stroke-opacity="0.5" stroke-dasharray="4 4"/>
<line x1="455.922" y1="316" x2="455.922" y2="631" stroke="#DDDDDD" stroke-opacity="0.5" stroke-dasharray="4 4"/>
<line x1="981.554" y1="1" x2="981.554" y2="316" stroke="#DDDDDD" stroke-opacity="0.5" stroke-dasharray="4 4"/>
<line x1="981.554" y1="316" x2="981.554" y2="631" stroke="#DDDDDD" stroke-opacity="0.5" stroke-dasharray="4 4"/>
<line x1="53.1582" y1="1" x2="53.1582" y2="316" stroke="#DDDDDD" stroke-opacity="0.5"/>
<line x1="53.1582" y1="316" x2="53.1582" y2="631" stroke="#DDDDDD" stroke-opacity="0.5"/>
<line x1="578.791" y1="1" x2="578.791" y2="316" stroke="#DDDDDD" stroke-opacity="0.5"/>
<line x1="578.791" y1="316" x2="578.791" y2="631" stroke="#DDDDDD" stroke-opacity="0.5"/>
<line x1="333.527" y1="1" x2="333.527" y2="316" stroke="#DDDDDD" stroke-opacity="0.5" stroke-dasharray="4 4"/>
<line x1="333.527" y1="316" x2="333.527" y2="631" stroke="#DDDDDD" stroke-opacity="0.5" stroke-dasharray="4 4"/>
<line x1="859.16" y1="1" x2="859.16" y2="316" stroke="#DDDDDD" stroke-opacity="0.5" stroke-dasharray="4 4"/>
<line x1="859.16" y1="316" x2="859.16" y2="631" stroke="#DDDDDD" stroke-opacity="0.5" stroke-dasharray="4 4"/>
<line x1="193.105" y1="1" x2="193.105" y2="316" stroke="#DDDDDD" stroke-opacity="0.5" stroke-dasharray="4 4"/>
<line x1="193.105" y1="316" x2="193.105" y2="631" stroke="#DDDDDD" stroke-opacity="0.5" stroke-dasharray="4 4"/>
<line x1="718.738" y1="1" x2="718.738" y2="316" stroke="#DDDDDD" stroke-opacity="0.5" stroke-dasharray="4 4"/>
<line x1="718.738" y1="316" x2="718.738" y2="631" stroke="#DDDDDD" stroke-opacity="0.5" stroke-dasharray="4 4"/>
<line x1="473.475" y1="1" x2="473.475" y2="316" stroke="#DDDDDD" stroke-opacity="0.5"/>
<line x1="473.475" y1="316" x2="473.475" y2="631" stroke="#DDDDDD" stroke-opacity="0.5"/>
<line x1="999.107" y1="1" x2="999.107" y2="316" stroke="#DDDDDD" stroke-opacity="0.5"/>
<line x1="999.107" y1="316" x2="999.107" y2="631" stroke="#DDDDDD" stroke-opacity="0.5"/>
<line y1="87.7892" x2="525.633" y2="87.7892" stroke="#DDDDDD" stroke-opacity="0.5" stroke-dasharray="4 4"/>
<line y1="402.789" x2="525.633" y2="402.789" stroke="#DDDDDD" stroke-opacity="0.5" stroke-dasharray="4 4"/>
<line x1="525.632" y1="87.7892" x2="1051.26" y2="87.7892" stroke="#DDDDDD" stroke-opacity="0.5" stroke-dasharray="4 4"/>
<line x1="525.632" y1="402.789" x2="1051.26" y2="402.789" stroke="#DDDDDD" stroke-opacity="0.5" stroke-dasharray="4 4"/>
<line y1="175.078" x2="525.633" y2="175.078" stroke="#DDDDDD" stroke-opacity="0.5" stroke-dasharray="4 4"/>
<line y1="490.078" x2="525.633" y2="490.078" stroke="#DDDDDD" stroke-opacity="0.5" stroke-dasharray="4 4"/>
<line x1="525.632" y1="175.078" x2="1051.26" y2="175.078" stroke="#DDDDDD" stroke-opacity="0.5" stroke-dasharray="4 4"/>
<line x1="525.632" y1="490.078" x2="1051.26" y2="490.078" stroke="#DDDDDD" stroke-opacity="0.5" stroke-dasharray="4 4"/>
<line y1="262.842" x2="525.633" y2="262.842" stroke="#DDDDDD" stroke-opacity="0.5"/>
<line y1="577.842" x2="525.633" y2="577.842" stroke="#DDDDDD" stroke-opacity="0.5"/>
<line x1="525.632" y1="262.842" x2="1051.26" y2="262.842" stroke="#DDDDDD" stroke-opacity="0.5"/>
<line x1="525.632" y1="577.842" x2="1051.26" y2="577.842" stroke="#DDDDDD" stroke-opacity="0.5"/>
<line x1="70.7109" y1="1" x2="70.7109" y2="316" stroke="#DDDDDD" stroke-opacity="0.5" stroke-dasharray="4 4"/>
<line x1="70.7109" y1="316" x2="70.7109" y2="631" stroke="#DDDDDD" stroke-opacity="0.5" stroke-dasharray="4 4"/>
<line x1="596.343" y1="1" x2="596.343" y2="316" stroke="#DDDDDD" stroke-opacity="0.5" stroke-dasharray="4 4"/>
<line x1="596.343" y1="316" x2="596.343" y2="631" stroke="#DDDDDD" stroke-opacity="0.5" stroke-dasharray="4 4"/>
<line y1="70.2365" x2="525.633" y2="70.2365" stroke="#DDDDDD" stroke-opacity="0.5" stroke-dasharray="4 4"/>
<line y1="385.236" x2="525.633" y2="385.236" stroke="#DDDDDD" stroke-opacity="0.5" stroke-dasharray="4 4"/>
<line x1="525.632" y1="70.2365" x2="1051.26" y2="70.2365" stroke="#DDDDDD" stroke-opacity="0.5" stroke-dasharray="4 4"/>
<line x1="525.632" y1="385.236" x2="1051.26" y2="385.236" stroke="#DDDDDD" stroke-opacity="0.5" stroke-dasharray="4 4"/>
<line x1="351.08" y1="1" x2="351.08" y2="316" stroke="#DDDDDD" stroke-opacity="0.5" stroke-dasharray="4 4"/>
<line x1="351.08" y1="316" x2="351.08" y2="631" stroke="#DDDDDD" stroke-opacity="0.5" stroke-dasharray="4 4"/>
<line x1="876.712" y1="1" x2="876.712" y2="316" stroke="#DDDDDD" stroke-opacity="0.5" stroke-dasharray="4 4"/>
<line x1="876.712" y1="316" x2="876.712" y2="631" stroke="#DDDDDD" stroke-opacity="0.5" stroke-dasharray="4 4"/>
<line y1="158" x2="525.633" y2="158" stroke="#DDDDDD" stroke-opacity="0.5"/>
<line y1="473" x2="525.633" y2="473" stroke="#DDDDDD" stroke-opacity="0.5"/>
<line x1="525.632" y1="158" x2="1051.26" y2="158" stroke="#DDDDDD" stroke-opacity="0.5"/>
<line x1="525.632" y1="473" x2="1051.26" y2="473" stroke="#DDDDDD" stroke-opacity="0.5"/>
<line x1="210.658" y1="1" x2="210.658" y2="316" stroke="#DDDDDD" stroke-opacity="0.5"/>
<line x1="210.658" y1="316" x2="210.658" y2="631" stroke="#DDDDDD" stroke-opacity="0.5"/>
<line x1="736.291" y1="1" x2="736.291" y2="316" stroke="#DDDDDD" stroke-opacity="0.5"/>
<line x1="736.291" y1="316" x2="736.291" y2="631" stroke="#DDDDDD" stroke-opacity="0.5"/>
<line y1="245.289" x2="525.633" y2="245.289" stroke="#DDDDDD" stroke-opacity="0.5" stroke-dasharray="4 4"/>
<line y1="560.289" x2="525.633" y2="560.289" stroke="#DDDDDD" stroke-opacity="0.5" stroke-dasharray="4 4"/>
<line x1="525.632" y1="245.289" x2="1051.26" y2="245.289" stroke="#DDDDDD" stroke-opacity="0.5" stroke-dasharray="4 4"/>
<line x1="525.632" y1="560.289" x2="1051.26" y2="560.289" stroke="#DDDDDD" stroke-opacity="0.5" stroke-dasharray="4 4"/>
<line y1="52.6837" x2="525.633" y2="52.6837" stroke="#DDDDDD" stroke-opacity="0.5"/>
<line y1="367.684" x2="525.633" y2="367.684" stroke="#DDDDDD" stroke-opacity="0.5"/>
<line x1="525.632" y1="52.6837" x2="1051.26" y2="52.6837" stroke="#DDDDDD" stroke-opacity="0.5"/>
<line x1="525.632" y1="367.684" x2="1051.26" y2="367.684" stroke="#DDDDDD" stroke-opacity="0.5"/>
<line y1="0.5" x2="525.633" y2="0.5" stroke="#DDDDDD" stroke-opacity="0.5"/>
<line x1="525.632" y1="0.5" x2="1051.26" y2="0.5" stroke="#DDDDDD" stroke-opacity="0.5"/>
<line x1="491.027" y1="1" x2="491.027" y2="316" stroke="#DDDDDD" stroke-opacity="0.5" stroke-dasharray="4 4"/>
<line x1="491.027" y1="316" x2="491.027" y2="631" stroke="#DDDDDD" stroke-opacity="0.5" stroke-dasharray="4 4"/>
<line x1="1016.66" y1="1" x2="1016.66" y2="316" stroke="#DDDDDD" stroke-opacity="0.5" stroke-dasharray="4 4"/>
<line x1="1016.66" y1="316" x2="1016.66" y2="631" stroke="#DDDDDD" stroke-opacity="0.5" stroke-dasharray="4 4"/>
<line y1="140.447" x2="525.633" y2="140.447" stroke="#DDDDDD" stroke-opacity="0.5" stroke-dasharray="4 4"/>
<line y1="455.447" x2="525.633" y2="455.447" stroke="#DDDDDD" stroke-opacity="0.5" stroke-dasharray="4 4"/>
<line x1="525.632" y1="140.447" x2="1051.26" y2="140.447" stroke="#DDDDDD" stroke-opacity="0.5" stroke-dasharray="4 4"/>
<line x1="525.632" y1="455.447" x2="1051.26" y2="455.447" stroke="#DDDDDD" stroke-opacity="0.5" stroke-dasharray="4 4"/>
<line x1="88.2637" y1="1" x2="88.2637" y2="316" stroke="#DDDDDD" stroke-opacity="0.5" stroke-dasharray="4 4"/>
<line x1="88.2637" y1="316" x2="88.2637" y2="631" stroke="#DDDDDD" stroke-opacity="0.5" stroke-dasharray="4 4"/>
<line x1="613.896" y1="1" x2="613.896" y2="316" stroke="#DDDDDD" stroke-opacity="0.5" stroke-dasharray="4 4"/>
<line x1="613.896" y1="316" x2="613.896" y2="631" stroke="#DDDDDD" stroke-opacity="0.5" stroke-dasharray="4 4"/>
<line y1="35.131" x2="525.633" y2="35.131" stroke="#DDDDDD" stroke-opacity="0.5" stroke-dasharray="4 4"/>
<line y1="350.131" x2="525.633" y2="350.131" stroke="#DDDDDD" stroke-opacity="0.5" stroke-dasharray="4 4"/>
<line x1="525.632" y1="35.131" x2="1051.26" y2="35.131" stroke="#DDDDDD" stroke-opacity="0.5" stroke-dasharray="4 4"/>
<line x1="525.632" y1="350.131" x2="1051.26" y2="350.131" stroke="#DDDDDD" stroke-opacity="0.5" stroke-dasharray="4 4"/>
<line y1="18.0527" x2="525.633" y2="18.0527" stroke="#DDDDDD" stroke-opacity="0.5" stroke-dasharray="4 4"/>
<line y1="333.053" x2="525.633" y2="333.053" stroke="#DDDDDD" stroke-opacity="0.5" stroke-dasharray="4 4"/>
<line x1="525.632" y1="18.0527" x2="1051.26" y2="18.0527" stroke="#DDDDDD" stroke-opacity="0.5" stroke-dasharray="4 4"/>
<line x1="525.632" y1="333.053" x2="1051.26" y2="333.053" stroke="#DDDDDD" stroke-opacity="0.5" stroke-dasharray="4 4"/>
<line x1="368.632" y1="1" x2="368.632" y2="316" stroke="#DDDDDD" stroke-opacity="0.5"/>
<line x1="368.632" y1="316" x2="368.632" y2="631" stroke="#DDDDDD" stroke-opacity="0.5"/>
<line x1="894.265" y1="1" x2="894.265" y2="316" stroke="#DDDDDD" stroke-opacity="0.5"/>
<line x1="894.265" y1="316" x2="894.265" y2="631" stroke="#DDDDDD" stroke-opacity="0.5"/>
<line y1="227.736" x2="525.633" y2="227.736" stroke="#DDDDDD" stroke-opacity="0.5" stroke-dasharray="4 4"/>
<line y1="542.736" x2="525.633" y2="542.736" stroke="#DDDDDD" stroke-opacity="0.5" stroke-dasharray="4 4"/>
<line x1="525.632" y1="227.736" x2="1051.26" y2="227.736" stroke="#DDDDDD" stroke-opacity="0.5" stroke-dasharray="4 4"/>
<line x1="525.632" y1="542.736" x2="1051.26" y2="542.736" stroke="#DDDDDD" stroke-opacity="0.5" stroke-dasharray="4 4"/>
<line x1="228.211" y1="1" x2="228.211" y2="316" stroke="#DDDDDD" stroke-opacity="0.5" stroke-dasharray="4 4"/>
<line x1="228.211" y1="316" x2="228.211" y2="631" stroke="#DDDDDD" stroke-opacity="0.5" stroke-dasharray="4 4"/>
<line x1="753.843" y1="1" x2="753.843" y2="316" stroke="#DDDDDD" stroke-opacity="0.5" stroke-dasharray="4 4"/>
<line x1="753.843" y1="316" x2="753.843" y2="631" stroke="#DDDDDD" stroke-opacity="0.5" stroke-dasharray="4 4"/>
<line y1="122.895" x2="525.633" y2="122.895" stroke="#DDDDDD" stroke-opacity="0.5" stroke-dasharray="4 4"/>
<line y1="437.895" x2="525.633" y2="437.895" stroke="#DDDDDD" stroke-opacity="0.5" stroke-dasharray="4 4"/>
<line x1="525.632" y1="122.895" x2="1051.26" y2="122.895" stroke="#DDDDDD" stroke-opacity="0.5" stroke-dasharray="4 4"/>
<line x1="525.632" y1="437.895" x2="1051.26" y2="437.895" stroke="#DDDDDD" stroke-opacity="0.5" stroke-dasharray="4 4"/>
<line x1="508.58" y1="1" x2="508.58" y2="316" stroke="#DDDDDD" stroke-opacity="0.5" stroke-dasharray="4 4"/>
<line x1="508.58" y1="316" x2="508.58" y2="631" stroke="#DDDDDD" stroke-opacity="0.5" stroke-dasharray="4 4"/>
<line x1="1034.21" y1="1" x2="1034.21" y2="316" stroke="#DDDDDD" stroke-opacity="0.5" stroke-dasharray="4 4"/>
<line x1="1034.21" y1="316" x2="1034.21" y2="631" stroke="#DDDDDD" stroke-opacity="0.5" stroke-dasharray="4 4"/>
<line y1="315.5" x2="525.633" y2="315.5" stroke="#DDDDDD" stroke-opacity="0.5"/>
<line x1="525.632" y1="315.5" x2="1051.26" y2="315.5" stroke="#DDDDDD" stroke-opacity="0.5"/>
<line x1="105.816" y1="1" x2="105.816" y2="316" stroke="#DDDDDD" stroke-opacity="0.5"/>
<line x1="105.816" y1="316" x2="105.816" y2="631" stroke="#DDDDDD" stroke-opacity="0.5"/>
<line x1="631.449" y1="1" x2="631.449" y2="316" stroke="#DDDDDD" stroke-opacity="0.5"/>
<line x1="631.449" y1="316" x2="631.449" y2="631" stroke="#DDDDDD" stroke-opacity="0.5"/>
<line y1="210.184" x2="525.633" y2="210.184" stroke="#DDDDDD" stroke-opacity="0.5"/>
<line y1="525.184" x2="525.633" y2="525.184" stroke="#DDDDDD" stroke-opacity="0.5"/>
<line x1="525.632" y1="210.184" x2="1051.26" y2="210.184" stroke="#DDDDDD" stroke-opacity="0.5"/>
<line x1="525.632" y1="525.184" x2="1051.26" y2="525.184" stroke="#DDDDDD" stroke-opacity="0.5"/>
<line y1="105.342" x2="525.633" y2="105.342" stroke="#DDDDDD" stroke-opacity="0.5"/>
<line y1="420.342" x2="525.633" y2="420.342" stroke="#DDDDDD" stroke-opacity="0.5"/>
<line x1="525.632" y1="105.342" x2="1051.26" y2="105.342" stroke="#DDDDDD" stroke-opacity="0.5"/>
<line x1="525.632" y1="420.342" x2="1051.26" y2="420.342" stroke="#DDDDDD" stroke-opacity="0.5"/>
<line x1="386.186" y1="1" x2="386.186" y2="316" stroke="#DDDDDD" stroke-opacity="0.5" stroke-dasharray="4 4"/>
<line x1="386.186" y1="316" x2="386.186" y2="631" stroke="#DDDDDD" stroke-opacity="0.5" stroke-dasharray="4 4"/>
<line x1="911.818" y1="1" x2="911.818" y2="316" stroke="#DDDDDD" stroke-opacity="0.5" stroke-dasharray="4 4"/>
<line x1="911.818" y1="316" x2="911.818" y2="631" stroke="#DDDDDD" stroke-opacity="0.5" stroke-dasharray="4 4"/>
<line x1="245.764" y1="1" x2="245.764" y2="316" stroke="#DDDDDD" stroke-opacity="0.5" stroke-dasharray="4 4"/>
<line x1="245.764" y1="316" x2="245.764" y2="631" stroke="#DDDDDD" stroke-opacity="0.5" stroke-dasharray="4 4"/>
<line x1="771.396" y1="1" x2="771.396" y2="316" stroke="#DDDDDD" stroke-opacity="0.5" stroke-dasharray="4 4"/>
<line x1="771.396" y1="316" x2="771.396" y2="631" stroke="#DDDDDD" stroke-opacity="0.5" stroke-dasharray="4 4"/>
<line x1="526.132" y1="1" x2="526.132" y2="316" stroke="#DDDDDD" stroke-opacity="0.5"/>
<line x1="526.132" y1="316" x2="526.132" y2="631" stroke="#DDDDDD" stroke-opacity="0.5"/>
<line x1="1051.76" y1="1" x2="1051.76" y2="316" stroke="#DDDDDD" stroke-opacity="0.5"/>
<line x1="1051.76" y1="316" x2="1051.76" y2="631" stroke="#DDDDDD" stroke-opacity="0.5"/>
<line y1="297.947" x2="525.633" y2="297.947" stroke="#DDDDDD" stroke-opacity="0.5" stroke-dasharray="4 4"/>
<line y1="612.947" x2="525.633" y2="612.947" stroke="#DDDDDD" stroke-opacity="0.5" stroke-dasharray="4 4"/>
<line x1="525.632" y1="297.947" x2="1051.26" y2="297.947" stroke="#DDDDDD" stroke-opacity="0.5" stroke-dasharray="4 4"/>
<line x1="525.632" y1="612.947" x2="1051.26" y2="612.947" stroke="#DDDDDD" stroke-opacity="0.5" stroke-dasharray="4 4"/>
<line y1="192.631" x2="525.633" y2="192.631" stroke="#DDDDDD" stroke-opacity="0.5" stroke-dasharray="4 4"/>
<line y1="507.631" x2="525.633" y2="507.631" stroke="#DDDDDD" stroke-opacity="0.5" stroke-dasharray="4 4"/>
<line x1="525.632" y1="192.631" x2="1051.26" y2="192.631" stroke="#DDDDDD" stroke-opacity="0.5" stroke-dasharray="4 4"/>
<line x1="525.632" y1="507.631" x2="1051.26" y2="507.631" stroke="#DDDDDD" stroke-opacity="0.5" stroke-dasharray="4 4"/>
<line x1="123.369" y1="1" x2="123.369" y2="316" stroke="#DDDDDD" stroke-opacity="0.5" stroke-dasharray="4 4"/>
<line x1="123.369" y1="316" x2="123.369" y2="631" stroke="#DDDDDD" stroke-opacity="0.5" stroke-dasharray="4 4"/>
<line x1="649.001" y1="1" x2="649.001" y2="316" stroke="#DDDDDD" stroke-opacity="0.5" stroke-dasharray="4 4"/>
<line x1="649.001" y1="316" x2="649.001" y2="631" stroke="#DDDDDD" stroke-opacity="0.5" stroke-dasharray="4 4"/>
<line x1="403.738" y1="1" x2="403.738" y2="316" stroke="#DDDDDD" stroke-opacity="0.5" stroke-dasharray="4 4"/>
<line x1="403.738" y1="316" x2="403.738" y2="631" stroke="#DDDDDD" stroke-opacity="0.5" stroke-dasharray="4 4"/>
<line x1="929.371" y1="1" x2="929.371" y2="316" stroke="#DDDDDD" stroke-opacity="0.5" stroke-dasharray="4 4"/>
<line x1="929.371" y1="316" x2="929.371" y2="631" stroke="#DDDDDD" stroke-opacity="0.5" stroke-dasharray="4 4"/>
<line x1="263.316" y1="1" x2="263.316" y2="316" stroke="#DDDDDD" stroke-opacity="0.5"/>
<line x1="263.316" y1="316" x2="263.316" y2="631" stroke="#DDDDDD" stroke-opacity="0.5"/>
<line x1="788.949" y1="1" x2="788.949" y2="316" stroke="#DDDDDD" stroke-opacity="0.5"/>
<line x1="788.949" y1="316" x2="788.949" y2="631" stroke="#DDDDDD" stroke-opacity="0.5"/>
<line y1="280.395" x2="525.633" y2="280.395" stroke="#DDDDDD" stroke-opacity="0.5" stroke-dasharray="4 4"/>
<line y1="595.395" x2="525.633" y2="595.395" stroke="#DDDDDD" stroke-opacity="0.5" stroke-dasharray="4 4"/>
<line x1="525.632" y1="280.395" x2="1051.26" y2="280.395" stroke="#DDDDDD" stroke-opacity="0.5" stroke-dasharray="4 4"/>
<line x1="525.632" y1="595.395" x2="1051.26" y2="595.395" stroke="#DDDDDD" stroke-opacity="0.5" stroke-dasharray="4 4"/>
</svg>
