<svg width="69" height="21" viewBox="0 0 69 21" fill="none" xmlns="http://www.w3.org/2000/svg">
<circle cx="8.5" cy="10.5" r="8" fill="white" stroke="black"/>
<line x1="16" y1="10.5" x2="69" y2="10.5" stroke="black"/>
<path d="M8.944 5.92C8.74133 5.92 8.57067 5.856 8.432 5.728C8.29333 5.6 8.224 5.43467 8.224 5.232C8.224 4.95467 8.336 4.70933 8.56 4.496C8.784 4.272 9.03467 4.16 9.312 4.16C9.52533 4.16 9.696 4.224 9.824 4.352C9.96267 4.48 10.032 4.64533 10.032 4.848C10.032 5.12533 9.92 5.376 9.696 5.6C9.472 5.81333 9.22133 5.92 8.944 5.92ZM7.872 16.16C7.38133 16.16 7.01333 15.9893 6.768 15.648C6.52267 15.3067 6.464 14.848 6.592 14.272L7.936 8.128H5.232V7.744L8.064 7.536L8.848 7.136H9.232L7.664 14.272C7.58933 14.6133 7.60533 14.88 7.712 15.072C7.82933 15.264 8.032 15.36 8.32 15.36C8.65067 15.36 8.97067 15.2107 9.28 14.912C9.6 14.6027 9.952 14.1973 10.336 13.696L10.688 13.232L10.992 13.456L10.64 13.936C10.0853 14.6827 9.61067 15.2427 9.216 15.616C8.82133 15.9787 8.37333 16.16 7.872 16.16Z" fill="black"/>
</svg>
