<svg width="54" height="54" viewBox="0 0 54 54" fill="none" xmlns="http://www.w3.org/2000/svg">
<path fill-rule="evenodd" clip-rule="evenodd" d="M53.9539 28.5906L48.9623 28.3007C48.9873 27.8708 49 27.4372 49 27C49 26.5628 48.9873 26.1292 48.9623 25.6993L53.9539 25.4093C53.9845 25.9357 54 26.466 54 27C54 27.534 53.9845 28.0643 53.9539 28.5906ZM52.5165 18.1509L47.7924 19.7889C47.5084 18.9698 47.1771 18.1723 46.8017 17.3998L51.2989 15.2145C51.76 16.1636 52.1672 17.1437 52.5165 18.1509ZM47.183 9.0651C46.4782 8.27253 45.7275 7.52176 44.9349 6.81697L41.6123 10.5533C42.259 11.1284 42.8716 11.741 43.4467 12.3877L47.183 9.0651ZM38.7855 2.70115L36.6002 7.19832C35.8277 6.82293 35.0302 6.49164 34.2111 6.20759L35.8491 1.48354C36.8563 1.83278 37.8365 2.23998 38.7855 2.70115ZM28.5906 0.0460775L28.3007 5.03766C27.8708 5.01269 27.4372 5 27 5C26.5628 5 26.1292 5.01269 25.6993 5.03766L25.4093 0.0460776C25.9357 0.015501 26.466 0 27 0C27.534 0 28.0643 0.015501 28.5906 0.0460775ZM18.1509 1.48354L19.7889 6.20759C18.9698 6.49164 18.1723 6.82293 17.3998 7.19832L15.2145 2.70114C16.1636 2.23998 17.1437 1.83278 18.1509 1.48354ZM9.0651 6.81697L12.3877 10.5533C11.741 11.1284 11.1284 11.741 10.5533 12.3877L6.81697 9.06509C7.52176 8.27253 8.27253 7.52176 9.0651 6.81697ZM2.70115 15.2145L7.19832 17.3998C6.82293 18.1723 6.49164 18.9698 6.20759 19.7889L1.48354 18.1509C1.83278 17.1437 2.23998 16.1635 2.70115 15.2145ZM0.0460775 25.4094C0.015501 25.9357 0 26.466 0 27C0 27.534 0.015501 28.0643 0.0460776 28.5907L5.03766 28.3007C5.01269 27.8708 5 27.4372 5 27C5 26.5628 5.01269 26.1292 5.03766 25.6993L0.0460775 25.4094ZM1.48353 35.8491L6.20759 34.2111C6.49164 35.0302 6.82293 35.8277 7.19832 36.6002L2.70114 38.7855C2.23998 37.8364 1.83278 36.8563 1.48353 35.8491ZM6.81697 44.9349L10.5533 41.6123C11.1284 42.259 11.741 42.8716 12.3877 43.4467L9.06509 47.183C8.27253 46.4782 7.52176 45.7275 6.81697 44.9349ZM15.2145 51.2989L17.3998 46.8017C18.1723 47.1771 18.9698 47.5084 19.7889 47.7924L18.1509 52.5165C17.1437 52.1672 16.1635 51.76 15.2145 51.2989ZM25.4094 53.9539L25.6993 48.9623C26.1292 48.9873 26.5628 49 27 49C27.4372 49 27.8708 48.9873 28.3007 48.9623L28.5907 53.9539C28.0643 53.9845 27.534 54 27 54C26.466 54 25.9357 53.9845 25.4094 53.9539ZM35.8491 52.5165L34.2111 47.7924C35.0302 47.5084 35.8277 47.1771 36.6002 46.8017L38.7855 51.2989C37.8364 51.76 36.8563 52.1672 35.8491 52.5165ZM44.9349 47.183L41.6123 43.4467C42.259 42.8716 42.8716 42.259 43.4467 41.6123L47.183 44.9349C46.4782 45.7275 45.7275 46.4782 44.9349 47.183ZM51.2989 38.7855L46.8017 36.6002C47.1771 35.8277 47.5084 35.0302 47.7924 34.2111L52.5165 35.8491C52.1672 36.8563 51.76 37.8365 51.2989 38.7855Z" fill="black"/>
</svg>
