<svg width="62" height="75" viewBox="0 0 62 75" fill="none" xmlns="http://www.w3.org/2000/svg">
<path d="M3.64634 74.3535C3.8416 74.5488 4.15818 74.5488 4.35344 74.3536L7.5355 71.1717C7.73076 70.9764 7.73077 70.6598 7.53551 70.4645C7.34025 70.2693 7.02367 70.2693 6.8284 70.4645L3.99991 73.2929L1.17155 70.4644C0.976293 70.2691 0.65971 70.2691 0.464444 70.4644C0.269177 70.6596 0.26917 70.9762 0.464428 71.1715L3.64634 74.3535ZM3.99975 52L3.55858 51.7647L3.49976 51.875L3.49975 52L3.99975 52ZM15.9999 29.5L15.6569 29.1362L15.5973 29.1924L15.5587 29.2647L15.9999 29.5ZM33.4999 13L33.3204 12.5333L33.2285 12.5687L33.1569 12.6362L33.4999 13ZM4.4999 74C4.50001 68.9999 4.4992 58 4.49975 52L3.49975 52C3.4992 58 3.50001 69.0001 3.4999 74L4.4999 74ZM4.44093 52.2353L16.4411 29.7353L15.5587 29.2647L3.55858 51.7647L4.44093 52.2353ZM16.3429 29.8638L33.8429 13.3638L33.1569 12.6362L15.6569 29.1362L16.3429 29.8638ZM33.6794 13.4667L59.6794 3.46667L59.3204 2.53333L33.3204 12.5333L33.6794 13.4667Z" fill="black"/>
<rect x="6.74951" y="51.25" width="1.5" height="4.5" transform="rotate(90 6.74951 51.25)" fill="white" stroke="black" stroke-width="0.5"/>
<rect x="18.0618" y="29.8628" width="1.5" height="4.5" transform="rotate(110.043 18.0618 29.8628)" fill="white" stroke="black" stroke-width="0.5"/>
<rect x="35.9914" y="13.5757" width="1.5" height="4.5" transform="rotate(119.773 35.9914 13.5757)" fill="white" stroke="black" stroke-width="0.5"/>
<rect x="61.3235" y="4.52885" width="1.5" height="4.5" transform="rotate(159.186 61.3235 4.52885)" fill="white" stroke="black" stroke-width="0.5"/>
</svg>
