<svg width="140" height="126" viewBox="0 0 140 126" fill="none" xmlns="http://www.w3.org/2000/svg">
<path d="M91.9636 93.7005C91.4036 94.0654 90.8373 94.4255 90.2647 94.7808L90.0011 94.3559C89.7164 94.5326 89.4302 94.708 89.1424 94.8822C88.8547 95.0564 88.5665 95.2287 88.278 95.399L88.5322 95.8295C87.9519 96.1721 87.3703 96.5069 86.7873 96.8339L86.5427 96.3978C85.9559 96.727 85.3679 97.0482 84.7789 97.3616L85.0137 97.803C84.4175 98.1202 83.8202 98.4294 83.222 98.7305L82.9972 98.2839C82.3984 98.5853 81.7987 98.8787 81.1985 99.1639L81.4131 99.6155C80.8022 99.9058 80.1908 100.188 79.5789 100.461L79.3748 100.005C78.7613 100.279 78.1475 100.545 77.5335 100.803L77.7269 101.264C77.1045 101.525 76.482 101.777 75.8596 102.021L75.6772 101.556C75.0519 101.801 74.4267 102.037 73.802 102.265L73.9731 102.734C73.3372 102.966 72.7017 103.189 72.067 103.402L71.9074 102.929C71.2708 103.143 70.6349 103.348 70 103.544L70.1476 104.022C69.5027 104.221 68.8587 104.411 68.2161 104.592L68.0807 104.111C67.4332 104.293 66.787 104.465 66.1425 104.628L66.2652 105.113C65.6087 105.279 64.954 105.435 64.3012 105.582L64.1917 105.094C63.5361 105.241 62.8826 105.378 62.2316 105.506L62.3276 105.997C61.6643 106.126 61.0035 106.246 60.3454 106.355L60.2634 105.862C59.6003 105.972 58.9401 106.072 58.2832 106.161L58.3506 106.657C57.6787 106.748 57.0102 106.829 56.3453 106.898L56.2931 106.401C55.6244 106.471 54.9595 106.53 54.2989 106.579L54.3352 107.077C53.6598 107.127 52.9886 107.164 52.322 107.191L52.3022 106.691C51.6314 106.718 50.9655 106.733 50.3049 106.736L50.3075 107.236C49.6304 107.24 48.9587 107.231 48.2928 107.211L48.3083 106.711C47.6359 106.69 46.9696 106.657 46.31 106.611L46.2755 107.11C45.5983 107.063 44.9279 107.003 44.2647 106.931L44.3192 106.434C43.6515 106.361 42.9914 106.274 42.3394 106.175L42.2639 106.669C41.5931 106.566 40.9306 106.45 40.277 106.32L40.3746 105.83C39.7168 105.699 39.0682 105.554 38.4295 105.395L38.3087 105.88C37.6504 105.716 37.0022 105.537 36.3646 105.343L36.5099 104.865C35.8693 104.671 35.2398 104.461 34.6221 104.236L34.4513 104.706C33.814 104.475 33.1888 104.227 32.5764 103.964L32.7739 103.504C32.1604 103.24 31.5602 102.961 30.974 102.665L30.7487 103.111C30.144 102.806 29.5537 102.484 28.9784 102.145L29.2321 101.714C28.6588 101.377 28.1009 101.022 27.5592 100.651L27.2765 101.063C26.7192 100.681 26.1785 100.282 25.6552 99.8644L25.9669 99.4735C25.4491 99.0607 24.949 98.6305 24.4671 98.1829L24.1268 98.5492C23.6336 98.0911 23.159 97.615 22.7038 97.1209L23.0716 96.7821C22.6254 96.2978 22.1984 95.796 21.7913 95.2766L21.3978 95.585C20.9845 95.0577 20.5912 94.5126 20.2188 93.9498L20.6358 93.6739C20.454 93.3991 20.2773 93.12 20.1057 92.8366C19.9342 92.5532 19.7688 92.2672 19.6097 91.9787L19.1719 92.2203C18.8459 91.6293 18.5453 91.0281 18.2697 90.4174L18.7255 90.2118C18.4541 89.6103 18.2074 88.9993 17.9852 88.3794L17.5145 88.5482C17.2878 87.9158 17.086 87.2745 16.9088 86.6251L17.3912 86.4935C17.2181 85.859 17.0688 85.2163 16.9431 84.5662L16.4522 84.6611C16.3252 84.004 16.2218 83.3396 16.1417 82.6686L16.6382 82.6094C16.5604 81.9573 16.505 81.2986 16.4717 80.6341L15.9723 80.6591C15.9389 79.9923 15.9273 79.32 15.9374 78.6427L16.4373 78.6501C16.4471 77.9936 16.4774 77.332 16.5281 76.6661L16.0295 76.6281C16.0801 75.9634 16.1507 75.2947 16.2409 74.6226L16.7365 74.6891C16.8239 74.0378 16.9301 73.3829 17.0548 72.7251L16.5636 72.632C16.6877 71.9773 16.8299 71.3201 16.9898 70.6609L17.4757 70.7788C17.6309 70.1391 17.8032 69.4973 17.9922 68.8538L17.5125 68.7128C17.7003 68.0734 17.9044 67.4325 18.1247 66.7907L18.5976 66.953C18.8117 66.3291 19.0412 65.7042 19.286 65.0787L18.8203 64.8965C19.0634 64.2752 19.3213 63.6535 19.5938 63.0318L20.0518 63.2325C20.3172 62.6269 20.5967 62.0212 20.89 61.4158L20.44 61.1978C20.7305 60.5982 21.0344 59.9991 21.3515 59.4008L21.7933 59.635C22.1026 59.0513 22.4247 58.4683 22.7593 57.8863L22.3259 57.6371C22.6584 57.0588 23.0032 56.4817 23.36 55.906L23.785 56.1695C24.134 55.6065 24.4947 55.0448 24.867 54.4849L24.4506 54.2081C24.8207 53.6514 25.2021 53.0964 25.5945 52.5435L26.0023 52.8329C26.386 52.2923 26.7805 51.7536 27.1856 51.2172L26.7866 50.9159C27.1886 50.3835 27.601 49.8534 28.0235 49.3259L28.4137 49.6385C28.8285 49.1207 29.2531 48.6054 29.6875 48.0928L29.306 47.7696C29.7385 47.2592 30.1807 46.7515 30.6322 46.2469L31.0048 46.5803C31.4481 46.0849 31.9006 45.5924 32.3621 45.1031L31.9984 44.76C32.4565 44.2744 32.9234 43.792 33.399 43.3129L33.7538 43.6652C34.222 43.1937 34.6987 42.7254 35.1837 42.2607L34.8379 41.8997C35.3216 41.4363 35.8135 40.9765 36.3136 40.5205L36.6505 40.89C37.1418 40.442 37.641 39.9977 38.148 39.5572L37.8202 39.1797C38.3248 38.7414 38.8371 38.3069 39.357 37.8765L39.6759 38.2617C40.1887 37.8371 40.7089 37.4166 41.2365 37.0002L40.9268 36.6077C41.4529 36.1925 41.9862 35.7815 42.5267 35.3749L42.8273 35.7744C43.3583 35.3749 43.8963 34.9796 44.441 34.5888L44.1496 34.1825C44.6937 33.7922 45.2446 33.4063 45.8021 33.0251L46.0843 33.4379C46.6351 33.0613 47.1923 32.6893 47.7561 32.322L47.4831 31.9031C48.0432 31.5383 48.6095 31.1781 49.182 30.8228L49.4457 31.2477C49.7304 31.0711 50.0166 30.8956 50.3043 30.7214C50.5921 30.5472 50.8803 30.375 51.1688 30.2047L50.9146 29.7741C51.4948 29.4316 52.0765 29.0968 52.6594 28.7697L52.9041 29.2058C53.4908 28.8767 54.0788 28.5554 54.6678 28.2421L54.433 27.8006C55.0293 27.4834 55.6266 27.1743 56.2247 26.8732L56.4496 27.3198C57.0484 27.0183 57.6481 26.7249 58.2483 26.4397L58.0337 25.9881C58.6445 25.6978 59.256 25.4159 59.8678 25.1422L60.072 25.5987C60.6855 25.3243 61.2993 25.0583 61.9132 24.8008L61.7199 24.3398C62.3422 24.0787 62.9647 23.8262 63.5871 23.5824L63.7695 24.0479C64.3949 23.8029 65.02 23.5666 65.6448 23.339L65.4736 22.8692C66.1095 22.6376 66.745 22.4149 67.3798 22.2012L67.5393 22.6751C68.176 22.4608 68.8119 22.2556 69.4467 22.0594L69.2991 21.5817C69.9441 21.3824 70.5881 21.1925 71.2307 21.0118L71.366 21.4931C72.0136 21.3111 72.6597 21.1385 73.3042 20.9755L73.1816 20.4907C73.838 20.3247 74.4928 20.1683 75.1456 20.0218L75.2551 20.5096C75.9107 20.3624 76.5641 20.2252 77.2152 20.0978L77.1192 19.6071C77.7825 19.4774 78.4433 19.3578 79.1014 19.2485L79.1834 19.7417C79.8465 19.6315 80.5066 19.5318 81.1636 19.4424L81.0962 18.947C81.7681 18.8556 82.4366 18.775 83.1015 18.7053L83.1537 19.2025C83.8224 19.1324 84.4873 19.0732 85.1479 19.025L85.1115 18.5264C85.787 18.4771 86.4582 18.4392 87.1247 18.4127L87.1446 18.9123C87.8154 18.8857 88.4813 18.8707 89.1419 18.8672L89.1393 18.3672C89.8164 18.3637 90.4881 18.3723 91.154 18.3929L91.1385 18.8927C91.8109 18.9135 92.4771 18.9467 93.1368 18.9924L93.1713 18.4936C93.8484 18.5404 94.5189 18.6002 95.1821 18.6729L95.1276 19.1699C95.7953 19.2431 96.4554 19.3295 97.1074 19.4291L97.1829 18.9348C97.8536 19.0373 98.5161 19.1536 99.1698 19.2837L99.0722 19.774C99.73 19.905 100.379 20.05 101.017 20.2091L101.138 19.7239C101.796 19.8878 102.445 20.0666 103.082 20.2602L102.937 20.7386C103.578 20.9331 104.207 21.1427 104.825 21.3672L104.995 20.8973C105.633 21.129 106.258 21.3766 106.87 21.64L106.673 22.0993C107.286 22.3632 107.887 22.643 108.473 22.9388L108.698 22.4924C109.303 22.7976 109.893 23.1195 110.468 23.4583L110.215 23.8892C110.788 24.2268 111.346 24.5813 111.888 24.9526L112.17 24.5402C112.728 24.9222 113.268 25.3219 113.792 25.7392L113.48 26.1301C113.998 26.543 114.498 26.9732 114.98 27.4208L115.32 27.0544C115.813 27.5125 116.288 27.9887 116.743 28.4828L116.375 28.8215C116.821 29.3058 117.248 29.8077 117.655 30.327L118.049 30.0186C118.462 30.5459 118.856 31.091 119.228 31.6539L118.811 31.9298C118.993 32.2045 119.169 32.4836 119.341 32.767C119.513 33.0505 119.678 33.3364 119.837 33.6249L120.275 33.3834C120.601 33.9743 120.901 34.5755 121.177 35.1862L120.721 35.3919C120.993 35.9934 121.239 36.6044 121.462 37.2242L121.932 37.0555C122.159 37.6878 122.361 38.3291 122.538 38.9785L122.056 39.1101C122.229 39.7447 122.378 40.3873 122.504 41.0374L122.995 40.9425C123.122 41.5997 123.225 42.2641 123.305 42.935L122.809 42.9943C122.886 43.6463 122.942 44.305 122.975 44.9696L123.474 44.9445C123.508 45.6113 123.519 46.2837 123.509 46.9609L123.009 46.9535C123 47.6101 122.969 48.2716 122.919 48.9375L123.417 48.9755C123.367 49.6402 123.296 50.3089 123.206 50.981L122.71 50.9145C122.623 51.5659 122.517 52.2207 122.392 52.8785L122.883 52.9717C122.759 53.6263 122.617 54.2835 122.457 54.9428L121.971 54.8249C121.816 55.4645 121.644 56.1064 121.455 56.7499L121.934 56.8908C121.746 57.5303 121.542 58.1712 121.322 58.813L120.849 58.6507C120.635 59.2745 120.406 59.8994 120.161 60.525L120.626 60.7072C120.383 61.3285 120.125 61.9502 119.853 62.5719L119.395 62.3711C119.13 62.9767 118.85 63.5825 118.557 64.1879L119.007 64.4059C118.716 65.0054 118.412 65.6045 118.095 66.2028L117.654 65.9687C117.344 66.5524 117.022 67.1354 116.687 67.7173L117.121 67.9666C116.788 68.5449 116.444 69.122 116.087 69.6976L115.662 69.4341C115.313 69.9972 114.952 70.5588 114.58 71.1187L114.996 71.3955C114.626 71.9523 114.245 72.5073 113.852 73.0602L113.445 72.7707C113.061 73.3114 112.666 73.85 112.261 74.3864L112.66 74.6878C112.258 75.2201 111.846 75.7502 111.423 76.2777L111.033 75.9651C110.618 76.4829 110.194 76.9982 109.759 77.5108L110.141 77.8341C109.708 78.3445 109.266 78.8521 108.815 79.3567L108.442 79.0233C107.999 79.5187 107.546 80.0112 107.085 80.5005L107.448 80.8436C106.99 81.3292 106.523 81.8117 106.048 82.2907L105.693 81.9384C105.225 82.41 104.748 82.8782 104.263 83.3429L104.609 83.704C104.125 84.1673 103.633 84.6271 103.133 85.0831L102.796 84.7137C102.305 85.1617 101.806 85.606 101.299 86.0464L101.627 86.4239C101.122 86.8622 100.61 87.2967 100.09 87.7271L99.7709 87.342C99.2581 87.7665 98.7378 88.1871 98.2103 88.6034L98.52 88.9959C97.9939 89.4111 97.4605 89.8221 96.9201 90.2288L96.6195 89.8292C96.0885 90.2288 95.5505 90.624 95.0057 91.0148L95.2972 91.4211C94.753 91.8114 94.2022 92.1973 93.6446 92.5785L93.3624 92.1658C92.8117 92.5424 92.2544 92.9144 91.6907 93.2816L91.9636 93.7005Z" stroke="black" stroke-dasharray="2 2"/>
<circle cx="95.5" cy="90.5" r="4.5" fill="#333333"/>
</svg>
