<svg width="69" height="21" viewBox="0 0 69 21" fill="none" xmlns="http://www.w3.org/2000/svg">
<circle cx="8.5" cy="11.5" r="8" fill="white" stroke="black"/>
<path d="M6 16.16C5.57333 16.16 5.216 15.9627 4.928 15.568C4.65067 15.1627 4.53333 14.5387 4.576 13.696C4.59733 13.2373 4.67733 12.7253 4.816 12.16C4.96533 11.584 5.168 11.008 5.424 10.432C5.69067 9.856 6 9.32267 6.352 8.832C6.71467 8.34133 7.11467 7.94667 7.552 7.648C8 7.34933 8.48533 7.2 9.008 7.2C9.27467 7.2 9.49867 7.23733 9.68 7.312C9.872 7.376 10.0053 7.44533 10.08 7.52L10.848 7.2H11.232L9.648 14.656C9.62667 14.7733 9.62133 14.9173 9.632 15.088C9.64267 15.248 9.74933 15.328 9.952 15.328C10.1653 15.328 10.3467 15.2373 10.496 15.056C10.656 14.8747 10.8533 14.624 11.088 14.304L11.52 13.728L11.792 13.92L11.408 14.448C11.0667 14.9173 10.7467 15.3227 10.448 15.664C10.1493 15.9947 9.79733 16.16 9.392 16.16C9.21067 16.16 9.03467 16.1067 8.864 16C8.704 15.904 8.59733 15.7333 8.544 15.488C8.49067 15.232 8.53333 14.8853 8.672 14.448L9.728 11.088H9.488L9.2 11.952C9.04 12.432 8.85333 12.9227 8.64 13.424C8.42667 13.9147 8.18133 14.368 7.904 14.784C7.63733 15.2 7.344 15.536 7.024 15.792C6.71467 16.0373 6.37333 16.16 6 16.16ZM6.32 15.52C6.58667 15.52 6.848 15.392 7.104 15.136C7.37067 14.88 7.62133 14.5387 7.856 14.112C8.10133 13.6853 8.33067 13.216 8.544 12.704C8.75733 12.1813 8.94933 11.6533 9.12 11.12C9.30133 10.576 9.456 10.064 9.584 9.584C9.712 9.104 9.808 8.69867 9.872 8.368C9.79733 8.22933 9.65333 8.09067 9.44 7.952C9.23733 7.80267 8.98667 7.728 8.688 7.728C8.22933 7.728 7.82933 7.92533 7.488 8.32C7.15733 8.704 6.90133 9.232 6.72 9.904L5.664 13.696C5.52533 14.1973 5.51467 14.6293 5.632 14.992C5.76 15.344 5.98933 15.52 6.32 15.52Z" fill="black"/>
<line x1="16" y1="11.5" x2="69" y2="11.5" stroke="black"/>
</svg>
